<?xml version="1.0" standalone="no"?>
<!DOCTYPE svg PUBLIC "-//W3C//DTD SVG 20010904//EN"
 "http://www.w3.org/TR/2001/REC-SVG-20010904/DTD/svg10.dtd">
<svg version="1.0" xmlns="http://www.w3.org/2000/svg"
 width="240.000000pt" height="240.000000pt" viewBox="0 0 240.000000 240.000000"
 preserveAspectRatio="xMidYMid meet">

<g transform="translate(0.000000,240.000000) scale(0.100000,-0.100000)"
fill="#CDCDCD" stroke="none">
<path d="M1892 2279 c-62 -24 -128 -83 -137 -122 -19 -74 46 -141 119 -123 14
3 38 18 55 32 17 14 46 28 64 31 45 7 95 -35 103 -88 8 -47 -31 -96 -84 -104
-72 -12 -112 -50 -112 -105 0 -66 58 -107 140 -97 96 12 182 74 227 165 23 47
28 70 28 132 0 86 -21 142 -75 204 -76 86 -218 119 -328 75z"/>
<path d="M1090 2194 c-202 -31 -302 -68 -447 -166 -323 -217 -494 -614 -428
-993 110 -629 758 -995 1355 -764 278 107 519 376 599 669 46 168 33 241 -44
256 -72 13 -115 -25 -130 -116 -28 -183 -139 -374 -287 -498 -64 -52 -228
-134 -318 -158 -101 -27 -293 -25 -395 4 -275 79 -492 297 -567 567 -28 103
-30 298 -5 393 77 290 291 507 576 584 113 31 299 31 404 0 99 -28 128 -28
160 2 44 41 48 105 8 145 -51 51 -340 96 -481 75z"/>
<path d="M1351 1686 c-87 -48 -50 -186 49 -186 51 0 100 49 100 99 0 75 -83
124 -149 87z"/>
<path d="M1951 1586 c-87 -48 -50 -186 49 -186 51 0 100 49 100 99 0 75 -83
124 -149 87z"/>
<path d="M951 1486 c-87 -48 -50 -186 49 -186 51 0 100 49 100 99 0 75 -83
124 -149 87z"/>
<path d="M1390 1180 c-102 -37 -236 -151 -277 -236 -23 -47 -10 -100 30 -124
61 -38 104 -23 167 56 50 63 118 111 169 120 82 13 121 45 121 98 0 94 -87
130 -210 86z"/>
</g>
</svg>
