<svg width="240" height="240" viewBox="0 0 240 240" fill="none" xmlns="http://www.w3.org/2000/svg">
<rect width="240" height="240" fill="#181616"/>
<path d="M75.3156 179.56C65.5023 179.56 57.0756 177.907 50.0356 174.6C42.9956 171.293 37.5023 166.653 33.5556 160.68C29.609 154.707 27.369 147.667 26.8356 139.56L51.3156 138.44C51.9556 142.92 53.2356 146.76 55.1556 149.96C57.1823 153.053 59.849 155.4 63.1556 157C66.569 158.6 70.729 159.4 75.6356 159.4C79.689 159.4 83.1023 158.92 85.8756 157.96C88.7556 157 90.9423 155.56 92.4356 153.64C93.929 151.613 94.6756 149.16 94.6756 146.28C94.6756 143.613 94.0356 141.32 92.7556 139.4C91.4756 137.373 89.0223 135.56 85.3956 133.96C81.769 132.253 76.4356 130.6 69.3956 129C59.689 126.76 51.849 124.253 45.8756 121.48C40.009 118.707 35.7423 115.24 33.0756 111.08C30.409 106.813 29.0756 101.48 29.0756 95.08C29.0756 88.2533 30.729 82.28 34.0356 77.16C37.449 72.04 42.3556 68.04 48.7556 65.16C55.1556 62.28 62.7823 60.84 71.6356 60.84C81.0223 60.84 88.969 62.4933 95.4756 65.8C101.982 69.1067 107.049 73.64 110.676 79.4C114.409 85.16 116.649 91.7733 117.396 99.24L93.0756 100.52C92.7556 96.5733 91.689 93.16 89.8756 90.28C88.0623 87.2933 85.609 85 82.5156 83.4C79.4223 81.8 75.689 81 71.3156 81C65.769 81 61.3956 82.2267 58.1956 84.68C55.1023 87.1333 53.5556 90.3333 53.5556 94.28C53.5556 97.0533 54.249 99.4 55.6356 101.32C57.129 103.133 59.529 104.733 62.8356 106.12C66.249 107.507 71.049 108.84 77.2356 110.12C87.7956 112.253 96.1156 114.973 102.196 118.28C108.382 121.48 112.756 125.32 115.316 129.8C117.876 134.28 119.156 139.4 119.156 145.16C119.156 152.2 117.342 158.333 113.716 163.56C110.196 168.68 105.129 172.627 98.5156 175.4C92.009 178.173 84.2756 179.56 75.3156 179.56ZM136.762 177V63.4H215.162V83.88H147.642L161.082 69.96V121.96L147.642 111.4H212.282V131.56H147.642L161.082 121V177H136.762Z" fill="url(#paint0_linear_6_14)"/>
<defs>
<linearGradient id="paint0_linear_6_14" x1="-6.44724e-07" y1="7" x2="240" y2="251" gradientUnits="userSpaceOnUse">
<stop stop-color="white"/>
<stop offset="0.45192" stop-color="#D3D0DC"/>
<stop offset="1" stop-color="#6F6887"/>
</linearGradient>
</defs>
</svg>
