<svg width="240" height="240" viewBox="0 0 240 240" fill="none" xmlns="http://www.w3.org/2000/svg">
<rect width="240" height="240" fill="#181616"/>
<path d="M68.5124 111.3C55.5124 111.3 44.0724 107.4 37.7024 102.59L36.4024 80.88H47.7124C51.4824 95.44 57.9824 102.85 70.2024 102.85C79.0424 102.85 85.1524 98.69 85.1524 90.37C85.1524 83.35 80.8624 79.97 66.3024 75.81C46.5424 70.22 37.3124 62.68 37.3124 46.3C37.3124 28.36 50.5724 17.44 69.9424 17.44C82.1624 17.44 92.1724 20.69 98.6724 25.37V45.26H88.9224C85.4124 34.21 80.6024 25.76 68.3824 25.76C59.5424 25.76 54.9924 30.96 54.9924 37.2C54.9924 45.26 59.6724 48.25 73.7124 52.15C93.0824 57.48 103.742 64.89 103.742 82.57C103.742 102.2 88.0124 111.3 68.5124 111.3ZM161.124 102.2C174.384 102.2 179.844 86.21 179.844 66.06C179.844 43.18 173.084 26.54 158.004 26.54C144.744 26.54 139.284 42.53 139.284 62.68C139.284 85.56 146.044 102.2 161.124 102.2ZM160.604 17.44C188.814 17.44 204.544 38.37 204.544 62.55C204.544 92.45 184.654 111.3 158.524 111.3C130.314 111.3 114.714 90.37 114.714 66.19C114.714 36.29 134.604 17.44 160.604 17.44ZM85.515 220H36.245V211.81C44.955 211.42 47.035 209.99 47.035 202.84V145.9C47.035 138.75 44.955 137.32 36.245 136.93V128.74H110.085V153.31H101.375C97.085 142.52 93.705 137.19 83.305 137.19H70.175V169.95H79.925C85.775 169.95 87.985 167.22 89.285 159.42H97.085V189.19H89.285C87.985 181.26 85.775 178.53 79.925 178.53H70.175V203.36C70.175 210.38 74.725 211.81 85.515 212.33V220ZM120.282 128.74H204.002L205.952 158.77H196.852C190.612 143.56 188.142 136.93 177.612 136.93H173.582V202.84C173.582 209.99 176.442 211.42 185.022 211.81V220H139.002V211.81C147.712 211.42 150.702 209.99 150.702 202.84V136.93H146.542C136.012 136.93 133.542 143.56 127.302 158.77H118.332L120.282 128.74Z" fill="url(#paint0_linear_8_2)"/>
<defs>
<linearGradient id="paint0_linear_8_2" x1="-6.44724e-07" y1="0.912502" x2="236.932" y2="244.842" gradientUnits="userSpaceOnUse">
<stop stop-color="white"/>
<stop offset="0.45192" stop-color="#D3D0DC"/>
<stop offset="1" stop-color="#6F6887"/>
</linearGradient>
</defs>
</svg>
